<svg width="1920" height="882" viewBox="0 0 1920 882" fill="none" xmlns="http://www.w3.org/2000/svg">
<path fill-rule="evenodd" clip-rule="evenodd" d="M0 170.556L52.965 151.296C107.535 132.037 213.465 93.5185 321 122.407C428.535 151.296 534.465 247.593 642 315C749.535 382.407 855.465 420.926 963 440.185C1070.54 459.444 1176.46 459.444 1284 430.556C1391.54 401.667 1497.46 343.889 1605 276.481C1712.54 209.074 1818.47 132.037 1873.04 93.5185L1926 55V995H1873.04C1818.47 995 1712.54 995 1605 995C1497.46 995 1391.54 995 1284 995C1176.46 995 1070.54 995 963 995C855.465 995 749.535 995 642 995C534.465 995 428.535 995 321 995C213.465 995 107.535 995 52.965 995H0V170.556Z" fill="url(#paint0_linear_148_2)"/>
<path d="M0 105.953L80.25 86.6866C160.5 67.4202 321 28.8875 481.5 38.5207C642 48.1539 802.5 105.953 963 183.018C1123.5 260.084 1284 356.416 1444.5 394.948C1605 433.481 1765.5 414.215 1845.75 404.581L1926 394.948" stroke="#E6E7EA" stroke-width="2"/>
<path d="M-3 2L77.3204 88.3017C156.786 174.603 317.427 347.207 477.214 414.71C637 482.214 796.786 443.762 957.427 395.912C1117.21 347.207 1277 289.957 1436.79 319.009C1597.43 347.207 1757.21 462.561 1836.68 520.665L1917 577.915" stroke="url(#paint1_linear_148_2)" stroke-width="3"/>
<defs>
<linearGradient id="paint0_linear_148_2" x1="963" y1="27" x2="963" y2="995" gradientUnits="userSpaceOnUse">
<stop stop-color="#FBD850"/>
<stop offset="1" stop-color="#E8B32B"/>
</linearGradient>
<linearGradient id="paint1_linear_148_2" x1="75" y1="-43.5001" x2="1356" y2="501" gradientUnits="userSpaceOnUse">
<stop offset="0.535265" stop-color="#EAB830"/>
<stop offset="1" stop-color="#FBD850"/>
</linearGradient>
</defs>
</svg>
