<svg width="72" height="54" viewBox="0 0 72 54" fill="none" xmlns="http://www.w3.org/2000/svg">
<path d="M72 3.09375V50.9062C72 52.4602 70.7414 53.7188 69.1875 53.7188H12.7012C4.95 47.4019 0 37.7789 0 27C0 16.2211 4.95 6.59812 12.7012 0.28125H69.1875C70.7414 0.28125 72 1.53984 72 3.09375Z" fill="#E9F7FF"/>
<path d="M0 27C0 37.7795 4.95155 47.4012 12.7029 53.7188H24.1875C22.6342 53.7188 21.375 52.4596 21.375 50.9062V3.09375C21.375 1.54041 22.6342 0.28125 24.1875 0.28125H12.7029C4.95155 6.59883 0 16.2205 0 27Z" fill="#DAE8FE"/>
<path d="M67.7813 7.66406C66.0361 7.66406 64.6172 6.24516 64.6172 4.5C64.6172 3.91781 64.1447 3.44531 63.5625 3.44531H9.31078C8.67375 4.12313 8.06625 4.82625 7.48688 5.55469H62.6133C63.0338 7.61766 64.6636 9.2475 66.7266 9.66797V44.332C64.6636 44.7525 63.0338 46.3823 62.6133 48.4453H7.48688C8.06625 49.1737 8.67375 49.8769 9.31078 50.5547H63.5625C64.1447 50.5547 64.6172 50.0822 64.6172 49.5C64.6172 47.7548 66.0361 46.3359 67.7813 46.3359C68.3634 46.3359 68.8359 45.8634 68.8359 45.2812V8.71875C68.8359 8.13656 68.3634 7.66406 67.7813 7.66406Z" fill="#BECEF7"/>
<path d="M46.3359 30.8672H16.1016C15.5191 30.8672 15.0469 30.395 15.0469 29.8125V27.7031C15.0469 27.1207 15.5191 26.6484 16.1016 26.6484H46.3359C46.9184 26.6484 47.3906 27.1207 47.3906 27.7031V29.8125C47.3906 30.395 46.9184 30.8672 46.3359 30.8672Z" fill="#BECEF7"/>
<path d="M20.3203 29.8125V27.7031C20.3203 27.1207 20.7925 26.6484 21.375 26.6484H16.1016C15.5191 26.6484 15.0469 27.1207 15.0469 27.7031V29.8125C15.0469 30.395 15.5191 30.8672 16.1016 30.8672H21.375C20.7925 30.8672 20.3203 30.395 20.3203 29.8125Z" fill="#ACC7EF"/>
<path d="M50.5547 37.1953H11.8828C11.3003 37.1953 10.8281 36.7231 10.8281 36.1406C10.8281 35.5582 11.3003 35.0859 11.8828 35.0859H50.5547C51.1372 35.0859 51.6094 35.5582 51.6094 36.1406C51.6094 36.7231 51.1372 37.1953 50.5547 37.1953Z" fill="#BECEF7"/>
<path d="M20.3203 36.1406C20.3203 35.5582 20.7925 35.0859 21.375 35.0859H11.8828C11.3003 35.0859 10.8281 35.5582 10.8281 36.1406C10.8281 36.7231 11.3003 37.1953 11.8828 37.1953H21.375C20.7925 37.1953 20.3203 36.7231 20.3203 36.1406Z" fill="#ACC7EF"/>
<path d="M44.9297 42.1172H17.5078C16.9253 42.1172 16.4531 41.645 16.4531 41.0625C16.4531 40.48 16.9253 40.0078 17.5078 40.0078H44.9297C45.5122 40.0078 45.9844 40.48 45.9844 41.0625C45.9844 41.645 45.5122 42.1172 44.9297 42.1172Z" fill="#BECEF7"/>
<path d="M20.3203 41.0625C20.3203 40.48 20.7925 40.0078 21.375 40.0078H17.5078C16.9253 40.0078 16.4531 40.48 16.4531 41.0625C16.4531 41.645 16.9253 42.1172 17.5078 42.1172H21.375C20.7925 42.1172 20.3203 41.645 20.3203 41.0625Z" fill="#ACC7EF"/>
<path d="M52.3125 30.8672C53.4775 30.8672 54.4219 29.9228 54.4219 28.7578C54.4219 27.5928 53.4775 26.6484 52.3125 26.6484C51.1475 26.6484 50.2031 27.5928 50.2031 28.7578C50.2031 29.9228 51.1475 30.8672 52.3125 30.8672Z" fill="#BECEF7"/>
<path d="M10.125 30.8672C11.29 30.8672 12.2344 29.9228 12.2344 28.7578C12.2344 27.5928 11.29 26.6484 10.125 26.6484C8.96002 26.6484 8.01562 27.5928 8.01562 28.7578C8.01562 29.9228 8.96002 30.8672 10.125 30.8672Z" fill="#ACC7EF"/>
<path d="M53.615 22.2801C54.2336 21.9709 54.9617 21.9709 55.5802 22.2801L56.0624 22.5213L57.4686 18.9142L56.0624 15.6887H53.1328L51.7265 18.9142L53.1328 22.5213L53.615 22.2801Z" fill="#E80054"/>
<path d="M56.0626 15.6886V22.5212L57.4023 23.191C58.1328 23.5562 58.9922 23.025 58.9922 22.2083V15.6885H56.0626V15.6886Z" fill="#FF596E"/>
<path d="M51.793 23.1911L53.1328 22.5213V15.6887H50.2031V22.2085C50.2031 23.0251 51.0626 23.5563 51.793 23.1911Z" fill="#FF4155"/>
<path d="M54.5977 18.9141C58.4809 18.9141 61.6289 15.7661 61.6289 11.8828C61.6289 7.99956 58.4809 4.85156 54.5977 4.85156C50.7144 4.85156 47.5664 7.99956 47.5664 11.8828C47.5664 15.7661 50.7144 18.9141 54.5977 18.9141Z" fill="#FFDD40"/>
<path d="M53.1914 11.8829C53.1914 9.87984 54.0294 8.07295 55.3736 6.7927C56.1028 6.09829 55.6377 4.85643 54.6307 4.85165C54.4607 4.85081 54.2893 4.85615 54.1165 4.86768C50.5495 5.10674 47.7003 8.04932 47.5711 11.6219C47.4264 15.6241 50.6277 18.914 54.5975 18.914H54.6275C55.6359 18.9098 56.1033 17.6682 55.3732 16.9727C54.0293 15.6926 53.1914 13.8858 53.1914 11.8829Z" fill="#FFC839"/>
<path d="M54.5977 16.1016C56.9276 16.1016 58.8164 14.2128 58.8164 11.8828C58.8164 9.55286 56.9276 7.66406 54.5977 7.66406C52.2677 7.66406 50.3789 9.55286 50.3789 11.8828C50.3789 14.2128 52.2677 16.1016 54.5977 16.1016Z" fill="#FFB332"/>
<path d="M31.2188 32.2734C37.432 32.2734 42.4688 27.2366 42.4688 21.0234C42.4688 14.8102 37.432 9.77344 31.2188 9.77344C25.0055 9.77344 19.9688 14.8102 19.9688 21.0234C19.9688 27.2366 25.0055 32.2734 31.2188 32.2734Z" fill="white"/>
<path d="M38.5435 23.3326C38.7896 22.3687 38.9108 21.3569 38.9108 20.3489C38.9108 15.833 35.467 12.5859 31.2189 12.5859C26.9707 12.5859 23.527 15.833 23.527 20.3489C23.527 21.3569 23.6481 22.3687 23.8943 23.3326H38.5435Z" fill="#B76C4E"/>
<path d="M29.0633 15.4603C28.2249 15.0244 27.8689 13.3204 29.0132 12.8921C25.84 13.7997 23.5269 16.6479 23.5269 20.3489C23.5269 21.3569 23.6479 22.3687 23.8942 23.3327H29.0633V15.4603Z" fill="#A05838"/>
<path d="M25.5448 22.6817C25.5448 22.6817 24.8438 20.9749 23.5942 21.3712C22.3446 21.7675 23.1062 25.2683 25.5448 25.5014V22.6817Z" fill="#FD995B"/>
<path d="M36.8926 22.6817C36.8926 22.6817 37.5937 20.9749 38.8432 21.3712C40.0928 21.7675 39.3312 25.2683 36.8926 25.5014V22.6817Z" fill="#FCAD6D"/>
<path d="M37.5062 19.6559C37.2348 19.4115 36.9049 19.0342 36.6936 18.5155C36.4125 17.8254 35.9831 16.862 35.4433 16.3071C35.1367 16.0471 34.8157 15.8315 34.4879 15.6926C33.8563 15.4251 33.2734 15.4179 32.7801 15.5241C32.2654 15.6348 31.7422 15.6902 31.2188 15.6902C30.6953 15.6902 30.1721 15.6348 29.6574 15.5241C29.1641 15.4179 28.5812 15.4251 27.9496 15.6926C27.6218 15.8313 27.3008 16.0469 26.9942 16.3071C26.4544 16.862 26.025 17.8254 25.7439 18.5155C25.5326 19.0342 25.2027 19.4115 24.9313 19.6559C24.6322 19.9254 24.4668 20.3129 24.4839 20.7151C24.6621 24.8936 26.4337 29.4609 31.2188 29.4609C36.0038 29.4609 37.7754 24.8936 37.9536 20.715C37.9707 20.3129 37.8053 19.9252 37.5062 19.6559Z" fill="#F9BA8F"/>
<path d="M33.2119 29.1563L33.2105 29.14C29.7076 27.9773 28.0762 23.834 28.0762 19.7516C28.0762 18.1439 28.4362 16.6875 29.0631 15.4604C28.7173 15.4606 28.3428 15.5261 27.9495 15.6928C27.6217 15.8316 27.3006 16.0471 26.9941 16.3073C26.4542 16.8622 26.0249 17.8256 25.7438 18.5157C25.5324 19.0344 25.2025 19.4117 24.9311 19.6561C24.632 19.9256 24.4666 20.3131 24.4838 20.7153C24.6621 24.8937 26.4337 29.4609 31.2187 29.4609C31.9524 29.4609 32.6148 29.3532 33.2119 29.1563Z" fill="#FCAD6D"/>
</svg>
