<svg width="68" height="72" viewBox="0 0 68 72" fill="none" xmlns="http://www.w3.org/2000/svg">
<path d="M34 67.7812C49.533 67.7812 62.125 55.1893 62.125 39.6562C62.125 24.1232 49.533 11.5312 34 11.5312C18.467 11.5312 5.875 24.1232 5.875 39.6562C5.875 55.1893 18.467 67.7812 34 67.7812Z" fill="#85CFE7"/>
<path d="M34 67.7812C49.533 67.7812 62.125 55.1893 62.125 39.6562C62.125 24.1232 49.533 11.5312 34 11.5312C18.467 11.5312 5.875 24.1232 5.875 39.6562C5.875 55.1893 18.467 67.7812 34 67.7812Z" fill="black" fill-opacity="0.05"/>
<path d="M1.16418 32.9171L2.50743 30.3335C3.21322 28.9761 3.22729 27.3724 2.58168 25.9854C1.50069 23.6633 0.892769 21.0763 0.883066 18.3482C0.846785 8.2741 9.07208 0.00957086 19.1463 8.35721e-06C29.2567 -0.00955414 37.4547 8.18832 37.4453 18.2987C37.4359 28.3729 29.1715 36.5985 19.0972 36.5624C16.3691 36.5527 13.7822 35.9447 11.4599 34.8636C10.0729 34.2179 8.46922 34.2321 7.11177 34.9379L4.52821 36.2811C3.56268 36.7831 2.38311 36.6013 1.61347 35.8318C0.843972 35.0623 0.662144 33.8828 1.16418 32.9171Z" fill="#BED5F7"/>
<path d="M26.4869 8.83842C24.7415 6.86897 22.2856 5.625 19.264 5.625C16.2424 5.625 14.9423 6.12239 13.7259 6.68377C12.5095 7.24514 12.4283 9.68977 12.4283 9.68977C10.9131 11.3408 9.98779 13.5422 9.98779 15.9598V18.6133H28.5402V15.9598C28.5402 13.9299 28.2323 10.8077 26.4869 8.83842Z" fill="#2D3C6B"/>
<path d="M9.98779 18.6132H16.4696V12.6478C14.0324 12.6478 12.397 11.1605 12.4283 9.68958C10.9131 11.3408 9.98779 13.5421 9.98779 15.9598V18.6132Z" fill="#213159"/>
<path d="M12.5421 19.7028C12.5421 19.7028 11.6259 17.472 9.99252 17.9898C8.35916 18.5076 10.032 23.3419 13.2192 23.6465L12.5421 19.7028Z" fill="#934A2E"/>
<path d="M25.7859 19.7028C25.7859 19.7028 26.7021 17.472 28.3353 17.9898C29.9685 18.5078 28.2958 23.3419 25.1086 23.6465L25.7859 19.7028Z" fill="#A05838"/>
<path d="M25.4322 16.6314C25.1227 15.7238 24.6189 14.4703 24.0008 13.745C23.6498 13.4051 23.2822 13.1233 22.9069 12.9418C22.1839 12.5923 21.5167 12.5828 20.9518 12.7215C19.7771 13.0099 18.5506 13.0099 17.376 12.7215C16.8112 12.5828 16.1438 12.5921 15.4209 12.9418C15.0455 13.1234 14.6779 13.4051 14.3269 13.745C13.7089 14.4702 13.205 15.7238 12.8955 16.6314C12.6518 17.3458 12.1262 17.9286 11.4412 18.2455C11.4385 18.3541 11.4355 18.4625 11.4355 18.5725C11.4355 24.2634 14.8956 30.9376 19.1637 30.9376C23.4318 30.9376 26.8919 24.2634 26.8919 18.5725C26.8919 18.4626 26.8891 18.3541 26.8863 18.2455C26.2015 17.9286 25.6758 17.3458 25.4322 16.6314Z" fill="#B76C4E"/>
<path d="M14.9647 18.5724C14.9647 16.2851 15.5239 14.2567 16.4695 12.6478C16.1382 12.6754 15.7868 12.765 15.4209 12.9419C15.0455 13.1234 14.6779 13.4051 14.3269 13.745C13.7089 14.4702 13.205 15.7239 12.8955 16.6315C12.6518 17.3458 12.1262 17.9286 11.4412 18.2455C11.4385 18.3541 11.4355 18.4625 11.4355 18.5725C11.4355 24.2635 14.8956 30.9377 19.1637 30.9377C19.7708 30.9377 20.3614 30.8022 20.9282 30.5542C17.5105 29.0583 14.9647 23.4539 14.9647 18.5724Z" fill="#A05838"/>
<path d="M63.4718 46.1249L60.8882 44.7816C59.5308 44.0758 57.9271 44.0618 56.5401 44.7074C54.2179 45.7884 51.631 46.3963 48.9029 46.406C38.8287 46.4421 30.5641 38.2168 30.5547 28.1426C30.5451 18.0324 38.743 9.83434 48.8534 9.84376C58.9276 9.85318 67.1532 18.1176 67.1171 28.1918C67.1073 30.9199 66.4994 33.5069 65.4183 35.8292C64.7726 37.2161 64.7868 38.8198 65.4926 40.1773L66.8358 42.7608C67.3378 43.7264 67.156 44.9059 66.3865 45.6756C65.617 46.4451 64.4374 46.6269 63.4718 46.1249Z" fill="#DAF3FE"/>
<path d="M59.0024 34.57C58.7134 32.0711 58.0945 32.3428 58.0945 27.6185V23.8631C58.0945 18.7498 53.9493 14.6046 48.8361 14.6046C43.7228 14.6046 39.5776 18.7498 39.5776 23.8631V27.6185C39.5776 32.3429 38.9587 32.0711 38.6697 34.57C38.4194 36.7343 39.1889 38.7586 40.6705 39.6166C40.9827 39.7974 41.3689 39.5504 41.332 39.1915L41.1846 37.7539C41.1846 37.7539 41.7487 41.6453 48.8361 41.6453C55.9234 41.6453 56.4875 37.7539 56.4875 37.7539L56.3401 39.1915C56.3032 39.5505 56.6894 39.7974 57.0016 39.6166C58.4832 38.7588 59.2527 36.7343 59.0024 34.57Z" fill="#FF596E"/>
<path d="M45.1002 41.1798V21.9579C44.2189 21.1386 42.2533 16.8973 45.2439 15.3274C41.9148 16.7301 39.5776 20.0236 39.5776 23.863V27.6184C39.5776 32.3429 38.9587 32.071 38.6697 34.57C38.4194 36.7343 39.189 38.7586 40.6705 39.6166C40.9827 39.7974 41.3689 39.5505 41.332 39.1915L41.1846 37.7538C41.1846 37.7538 41.5321 40.147 45.1002 41.1798Z" fill="#FF4155"/>
<path d="M42.2267 28.7059C42.2267 28.7059 41.3123 26.4794 39.6821 26.9962C38.052 27.5131 39.0457 32.0802 42.2267 32.3842V28.7059Z" fill="#FD995B"/>
<path d="M55.4453 28.7059C55.4453 28.7059 56.3598 26.4794 57.9899 26.9962C59.62 27.5131 58.6264 32.0802 55.4453 32.3842V28.7059Z" fill="#FCAD6D"/>
<path d="M50.9162 23.0815L51.9979 24.3584C52.2075 24.6057 51.9991 24.9816 51.6783 24.9349C46.8115 24.2267 45.1003 21.9579 45.1003 21.9579C43.7167 22.6143 43.0592 24.2346 42.5797 25.6404C42.3366 26.3534 41.8119 26.935 41.1282 27.2514L41.1269 27.2507C41.1244 27.3592 41.1226 27.468 41.1226 27.5777C41.1226 33.2577 43.4946 39.0388 48.8361 39.0388C54.1776 39.0388 56.5497 33.2578 56.5497 27.5777C56.5497 27.4681 56.548 27.3593 56.5455 27.251C54.693 25.1326 52.7063 23.8524 50.9162 23.0815Z" fill="#F9BA8F"/>
<path d="M45.5254 27.5777C45.5254 27.468 45.5282 27.3597 45.531 27.2514C45.5463 26.2012 45.6532 24.2314 46.0693 22.8427C45.3904 22.3418 45.1003 21.958 45.1003 21.958C43.7167 22.6144 43.0592 24.2347 42.5797 25.6406C42.3366 26.3535 41.8119 26.9351 41.1282 27.2516L41.1269 27.2509C41.1244 27.3593 41.1226 27.4681 41.1226 27.5778C41.1226 33.2578 43.4946 39.0389 48.8361 39.0389C49.6301 39.0389 50.3578 38.9102 51.0224 38.6742C45.5151 36.7231 45.5254 27.5777 45.5254 27.5777Z" fill="#FCAD6D"/>
<path d="M21.0607 36.9374C13.9439 44.0678 13.9716 55.7279 21.1207 62.8258C23.0567 64.7478 25.3157 66.1473 27.7222 67.025C29.1596 67.5492 30.2836 68.6932 30.7444 70.1521L31.2948 71.8948C32.1874 71.964 33.0895 72 34 72C34.9106 72 35.8127 71.964 36.7054 71.8947L37.2558 70.1519C37.7166 68.6929 38.8405 67.5489 40.2779 67.0248C42.6845 66.1472 44.9436 64.7477 46.8796 62.8255C54.0287 55.7274 54.0562 44.0672 46.9392 36.9371C39.7967 29.7814 28.203 29.7816 21.0607 36.9374Z" fill="#E9F8FF"/>
<path d="M40.6218 51.2731C40.6218 51.2731 41.538 49.0424 43.1712 49.5601C44.8044 50.0781 43.1317 54.9122 39.9446 55.2168L40.6218 51.2731Z" fill="#FCAD6D"/>
<path d="M27.378 51.2731C27.378 51.2731 26.4619 49.0424 24.8286 49.5601C23.1954 50.0781 24.8682 54.9122 28.0553 55.2168L27.378 51.2731Z" fill="#FD995B"/>
<path d="M41.7281 50.1428C41.7281 55.8338 38.268 62.508 33.9999 62.508C29.7317 62.508 26.2717 55.8338 26.2717 50.1428C26.2717 44.4519 29.7318 40.3601 33.9999 40.3601C38.2682 40.36 41.7281 44.4519 41.7281 50.1428Z" fill="#F9BA8F"/>
<path d="M29.8008 50.1428C29.8008 45.2613 32.3467 41.5567 35.7646 40.6016C35.1979 40.4432 34.6072 40.3601 34.0002 40.3601C29.7319 40.3601 26.272 44.452 26.272 50.1428C26.272 55.8338 29.7321 62.508 34.0002 62.508C34.6072 62.508 35.1979 62.3726 35.7646 62.1245C32.3467 60.6288 29.8008 55.0242 29.8008 50.1428Z" fill="#FCAD6D"/>
<path d="M33.9998 37.1954C24.2488 37.1954 24.6023 44.2104 24.686 48.6732C24.695 49.1538 25.0874 49.5384 25.5681 49.5384H42.4317C42.9124 49.5384 43.3049 49.1538 43.3139 48.6732C43.3974 44.2102 43.7509 37.1954 33.9998 37.1954Z" fill="#4FABF7"/>
<path d="M31.3531 45.2114C28.0355 43.4588 28.697 38.2273 31.0117 37.4623C24.3286 38.7825 24.6122 44.7256 24.6861 48.6732C24.6951 49.1537 25.0876 49.5383 25.5682 49.5383H31.3531V45.2114Z" fill="#2E8BE6"/>
<path d="M42.3029 49.5384C42.3029 49.5384 40.3538 44.9122 33.9998 44.9122C27.6458 44.9122 25.6968 49.5384 25.6968 49.5384C25.6968 49.5384 26.315 51.0317 28.1064 51.0317C29.8978 51.0317 30.0702 49.7364 33.9998 49.7364C37.9295 49.7364 38.1019 51.0317 39.8933 51.0317C41.6847 51.0317 42.3029 49.5384 42.3029 49.5384Z" fill="#73C3F9"/>
<path d="M31.353 45.2114C27.0885 46.2356 25.6968 49.5382 25.6968 49.5382C25.6968 49.5382 26.315 51.0315 28.1064 51.0315C28.8161 51.0315 29.2717 50.8281 29.8075 50.5826C28.4553 48.208 28.9072 45.8846 31.353 45.2114Z" fill="#4FABF7"/>
</svg>
