<svg width="70" height="71" viewBox="0 0 70 71" fill="none" xmlns="http://www.w3.org/2000/svg">
<path d="M52.4545 13.2567V37.0181C52.4545 38.205 51.8175 39.2977 50.7909 39.8939C41.6897 45.1786 30.7969 46.0631 21.0952 42.5489C18.5456 41.625 16.0777 40.3987 13.7461 38.8659V13.2567C16.0777 14.7881 18.5456 16.0158 21.0952 16.9397C31.3959 20.6705 43.0369 19.4428 52.4545 13.2567Z" fill="#3C3C99"/>
<path d="M21.0958 16.9392V42.5489C18.5454 41.6255 16.0774 40.3982 13.7456 38.8656V13.2573C16.0774 14.7884 18.5456 16.0158 21.0958 16.9392Z" fill="#27276D"/>
<path d="M52.4545 13.2567V24.8386L33.7683 32.4408C33.2592 32.6475 32.6911 32.6475 32.1834 32.4408L13.7461 24.9398V13.2567C16.0777 14.7881 18.5456 16.0158 21.0952 16.9397C31.3959 20.6705 43.0369 19.4428 52.4545 13.2567Z" fill="#27276D"/>
<path d="M64.6401 13.3811L33.7682 0.821421C33.26 0.614702 32.6911 0.614702 32.1828 0.821421L1.31087 13.3811C-0.436957 14.0921 -0.436957 16.5669 1.31087 17.2781L32.1827 29.8378C32.6909 30.0446 33.2599 30.0446 33.7681 29.8378L64.6399 17.2781C66.3879 16.5671 66.3879 14.0922 64.6401 13.3811Z" fill="#5E5EBC"/>
<path d="M6.14426 17.2791L35.3929 29.1774L33.7686 29.8384C33.2596 30.0451 32.6914 30.0451 32.1838 29.8384L1.31098 17.2791C-0.436992 16.5676 -0.436992 14.0926 1.31098 13.381L32.1838 0.821787C32.6914 0.615068 33.2596 0.615068 33.7686 0.821787L35.3929 1.48272L6.14426 13.381C4.39629 14.0926 4.39629 16.5676 6.14426 17.2791Z" fill="#3C3C99"/>
<path d="M14.354 33.6812C13.7327 33.6812 13.229 33.1775 13.229 32.5562V22.9056C13.229 22.448 13.5062 22.036 13.93 21.8636L32.5517 14.2876C33.1276 14.0534 33.7836 14.3302 34.0177 14.9058C34.2519 15.4812 33.9751 16.1376 33.3996 16.3718L15.4789 23.6625V32.5562C15.479 33.1775 14.9754 33.6812 14.354 33.6812Z" fill="#FFD939"/>
<path d="M17.4984 43.2616H11.2099C10.398 43.2616 9.83196 42.4563 10.1069 41.6923L12.5417 34.9283C12.7091 34.4632 13.1503 34.1531 13.6447 34.1531H15.0636C15.5579 34.1531 15.9992 34.4632 16.1667 34.9283L18.6015 41.6923C18.8764 42.4563 18.3104 43.2616 17.4984 43.2616Z" fill="#5E5EBC"/>
<path d="M14.1365 34.1534C13.9851 34.1534 13.8494 34.4641 13.7978 34.9293L13.0516 41.6928C12.9674 42.4561 13.1422 43.2616 13.3904 43.2616H11.2099C10.3982 43.2616 9.83159 42.4561 10.1062 41.6928L12.5413 34.9293C12.7084 34.4641 13.1501 34.1534 13.6449 34.1534H14.1365Z" fill="#3C3C99"/>
<path d="M14.3539 36.057C16.2874 36.057 17.8547 34.4896 17.8547 32.5562C17.8547 30.6227 16.2874 29.0553 14.3539 29.0553C12.4204 29.0553 10.853 30.6227 10.853 32.5562C10.853 34.4896 12.4204 36.057 14.3539 36.057Z" fill="#5E5EBC"/>
<path d="M15.7044 35.7873C15.2876 35.9605 14.8319 36.0573 14.3526 36.0573C12.4202 36.0573 10.853 34.4901 10.853 32.556C10.853 30.622 12.4202 29.0547 14.3526 29.0547C14.8319 29.0547 15.2876 29.1514 15.7044 29.3247C14.4416 29.8539 13.555 31.1011 13.555 32.5558C13.555 34.0109 14.4416 35.2581 15.7044 35.7873Z" fill="#3C3C99"/>
<path d="M17.2427 59.1127L42.1358 56.9793V47.6397L17.2427 45.5063C16.2218 45.4188 15.3447 46.2239 15.3447 47.2486V57.3705C15.3447 58.3951 16.2218 59.2002 17.2427 59.1127Z" fill="#F7F7F7"/>
<path d="M69.6478 47.2486V48.8236C68.8885 50.8162 67.9561 52.7231 66.8719 54.5273C65.9761 56.0194 64.9735 57.4411 63.8766 58.7812L42.856 56.9798V47.6395L67.7494 45.5062C68.7703 45.419 69.6478 46.2234 69.6478 47.2486Z" fill="#F7F7F7"/>
<path d="M42.1346 52.4696V56.9789L17.2427 59.1129C16.2207 59.1996 15.3438 58.3951 15.3438 57.37V52.8607C15.3438 53.8843 16.2207 54.6902 17.2427 54.6019L42.1346 52.4696Z" fill="#EAEAEA"/>
<path d="M66.8714 54.5273C65.9756 56.0193 64.973 57.4411 63.8761 58.7812L42.8555 56.9784V52.47L66.8714 54.5273Z" fill="#EAEAEA"/>
<path d="M39.6082 70.2343L37.678 67.7232C37.4372 67.4099 37.0232 67.2856 36.6496 67.4143L33.6548 68.4456C32.9463 68.6896 32.2593 68.0292 32.4748 67.3116L36.18 54.9805L44.923 57.6075L41.2176 69.9386C41.0022 70.6561 40.0648 70.8283 39.6082 70.2343Z" fill="#81CC50"/>
<path d="M45.3838 70.2343L47.314 67.7232C47.5547 67.4099 47.9687 67.2856 48.3424 67.4143L51.3371 68.4456C52.0456 68.6896 52.7327 68.0292 52.5171 67.3116L48.8118 54.9805L40.0688 57.6075L43.7742 69.9386C43.9899 70.6561 44.9272 70.8283 45.3838 70.2343Z" fill="#98E565"/>
<path d="M48.1774 58.739H36.8139C35.9925 58.739 35.3267 58.0732 35.3267 57.2518V47.3673C35.3267 46.5459 35.9925 45.88 36.8139 45.88H48.1774C48.9988 45.88 49.6646 46.5459 49.6646 47.3673V57.2518C49.6645 58.0732 48.9986 58.739 48.1774 58.739Z" fill="#98E565"/>
<path d="M49.6649 53.4158V57.2516C49.6649 58.0733 48.9993 58.739 48.1775 58.739H36.8136C35.9919 58.739 35.3262 58.0734 35.3262 57.2516V53.4158C35.3262 54.2374 35.9917 54.903 36.8136 54.903H48.1775C48.9993 54.9032 49.6649 54.2376 49.6649 53.4158Z" fill="#81CC50"/>
<path d="M42.4958 60.9911C45.2095 60.9911 47.4095 58.7912 47.4095 56.0774C47.4095 53.3636 45.2095 51.1637 42.4958 51.1637C39.782 51.1637 37.582 53.3636 37.582 56.0774C37.582 58.7912 39.782 60.9911 42.4958 60.9911Z" fill="#FFD939"/>
<path d="M42.4956 58.739C43.9656 58.739 45.1572 57.5473 45.1572 56.0774C45.1572 54.6074 43.9656 53.4158 42.4956 53.4158C41.0256 53.4158 39.834 54.6074 39.834 56.0774C39.834 57.5473 41.0256 58.739 42.4956 58.739Z" fill="#FFC23B"/>
</svg>
